<?xml version="1.0" encoding="UTF-8"?>
<svg width="95px" height="40px" viewBox="0 0 95 40" version="1.1" xmlns="http://www.w3.org/2000/svg" xmlns:xlink="http://www.w3.org/1999/xlink">
    <title>NYULH_White</title>
    <defs>
        <polygon id="path-1" points="0 0 95 0 95 40 0 40"></polygon>
    </defs>
    <g id="Page-1" stroke="none" stroke-width="1" fill="none" fill-rule="evenodd">
        <g id="Artboard-Copy-4" transform="translate(-36.000000, -544.000000)">
            <g id="NYULH_White" transform="translate(36.000000, 544.000000)">
                <mask id="mask-2" fill="white">
                    <use xlink:href="#path-1"></use>
                </mask>
                <g id="Clip-2"></g>
                <path d="M32.9866884,8.00081692 C32.9989175,7.98855015 33.0075498,7.97628339 32.9902852,7.94886356 C32.9658269,7.90917697 32.9025233,7.82330961 32.768003,7.62776295 C32.5989535,7.38314923 31.5630755,5.93927886 30.216434,4.71837498 C28.8654764,3.49386323 24.7744776,0 18.2714655,0 C11.4958161,0 6.90054604,3.70744925 4.53313313,6.36067831 C2.2196722,8.95185197 1.06366109,11.8071219 1.03200926,11.8872166 C0.999638072,11.9665898 0.985970237,11.9839076 1.01906079,11.9976175 C1.05502877,12.012049 1.06581917,11.9593741 1.10826139,11.881444 C1.15214234,11.8006277 2.36210542,9.14884178 4.98201361,6.99349906 C7.60336051,4.83671318 11.9705935,2.35088939 18.3383659,2.35088939 C23.7760062,2.35088939 27.69292,4.28975979 29.4862839,5.36995666 C31.2796477,6.44943196 32.4241491,7.52313467 32.6723282,7.75548162 C32.8169195,7.89041603 32.8917329,7.95752245 32.9305783,7.9899933 C32.9571946,8.01236211 32.9737399,8.01164053 32.9866884,8.00081692" id="Fill-1" fill="#FFFFFE" mask="url(#mask-2)"></path>
                <path d="M0.113275665,18 C0.12911903,18.002363 0.140641478,18.0039003 0.145682549,18.0169675 C0.157925149,18.0477138 0.149283313,18.1222736 0.14856316,18.2813859 C0.147843008,18.4005279 0.0160550126,21.7803181 1.62775738,25.3376683 C3.28987045,29.0049366 6.23457598,32.8405411 10.9407757,35.3509788 C15.4194071,37.7422745 19.7568884,38.0881707 23.0278233,37.7038416 C26.1741716,37.334117 28.591005,36.0742862 28.8567415,35.9566815 C28.9647644,35.9090247 28.9856488,35.8805844 28.9971713,35.9044128 C28.9993318,35.9090247 29.0014922,35.9174799 28.9986116,35.9243979 C28.9892496,35.9451516 28.9503614,35.9743607 28.887708,36.0312414 C28.7991292,36.1111818 28.6558188,36.2387791 28.4656984,36.3917421 C28.0977002,36.6876755 27.3631442,37.4002216 24.8930195,38.519388 C21.355628,40.1220404 15.4273287,41.1328259 9.50767126,37.7099909 C3.82998518,34.4270517 1.28856532,28.7458988 0.427262363,24.4098978 C-0.22159547,21.1400258 0.0592641912,18.3982219 0.067185874,18.1768484 C0.0736672508,18.0984452 0.0729470978,18.0515571 0.0794284746,18.0261914 C0.0851896984,18.0062063 0.0959919931,17.9992883 0.113275665,18" id="Fill-3" fill="#FFFFFE" mask="url(#mask-2)"></path>
                <path d="M63.9090516,24.1318008 C63.9627761,24.1371648 64.0135159,24.137931 64.0650019,24.1371648 L65.323797,24.2490421 C66.8750922,24.3624521 66.9504558,24.5885057 66.9504558,24.9785441 C66.9504558,25.4796935 66.2908382,25.8038314 65.2700725,25.8038314 C63.8351804,25.8038314 63.5404418,25.4421456 63.5404418,24.8996169 C63.5404418,24.6183908 63.6680375,24.3547893 63.9090516,24.1318008 Z M65.1917243,17.0291188 C66.0132615,17.0291188 66.1856277,17.7931034 66.1856277,18.4344828 C66.1856277,19.337931 65.8237334,19.8559387 65.1917243,19.8559387 C64.3269089,19.8559387 64.1978208,18.9655172 64.1978208,18.4344828 C64.1978208,17.9095785 64.3269089,17.0291188 65.1917243,17.0291188 Z M61.2989359,25.3126437 C61.2989359,26.71341 62.4174503,27.2574713 64.9260864,27.2574713 C67.5563488,27.2574713 69.2561326,26.2659004 69.2561326,24.6068966 C69.2561326,22.9685824 68.2674524,22.3149425 65.731954,22.1386973 L64.65821,22.0858238 C64.035155,22.0176245 64.0105312,21.8727969 64.0105312,21.7210728 C64.0105312,21.6643678 64.0262009,21.5777778 64.1478272,21.4659004 C64.4709204,21.543295 64.8163989,21.5823755 65.1760546,21.5823755 C67.2496714,21.5823755 68.5383135,20.3517241 68.5383135,18.3708812 C68.5383135,18.067433 68.489066,17.7586207 68.3898249,17.4298851 C68.8173825,17.3501916 69.1882308,17.3501916 69.3755204,17.3501916 L69.5053546,17.3501916 L69.5053546,15.1111111 L69.3613431,15.1272031 C68.7591809,15.194636 68.0331539,15.5249042 67.5503794,15.9455939 C66.972841,15.4199234 66.1542884,15.1425287 65.1760546,15.1425287 C63.0964684,15.1425287 61.7518633,16.4099617 61.7518633,18.3708812 C61.7518633,19.4015326 62.1436045,20.2804598 62.8606775,20.8666667 C62.2674694,21.3118774 61.892144,21.9340996 61.892144,22.4904215 C61.892144,22.9318008 62.0764489,23.3065134 62.4278967,23.5846743 C61.669038,24.0344828 61.2989359,24.6007663 61.2989359,25.3126437 Z M37.4004833,32.4222222 L33.6897613,32.4222222 L33.6897613,27.8766284 L31.0565142,27.8766284 L31.0565142,39.8237548 L33.6897613,39.8237548 L33.6897613,34.7088123 L37.4004833,34.7088123 L37.4004833,39.8237548 L40.0329843,39.8237548 L40.0329843,27.8766284 L37.4004833,27.8766284 L37.4004833,32.4222222 Z M57.8672828,39.8237548 L60.4378514,39.8237548 L60.4378514,28.7409962 L57.8672828,29.091954 L57.8672828,39.8237548 Z M53.7916819,37.2436782 C53.3708399,37.640613 52.9216433,37.840613 52.4537923,37.840613 C52.0344427,37.840613 51.803875,37.5862069 51.803875,37.1249042 C51.803875,36.6222222 52.0336965,35.9961686 53.7916819,35.5762452 L53.7916819,37.2436782 Z M56.2846483,37.6061303 L56.2846483,33.8068966 C56.2846483,31.7793103 55.4041633,30.835249 53.5155976,30.835249 C52.0210116,30.835249 50.6846144,31.3226054 49.65191,32.2467433 L49.5601306,32.3287356 L50.7577394,33.943295 L50.8607114,33.8659004 C51.3069233,33.5279693 52.1881545,32.9616858 53.0783398,32.9616858 C53.5917073,32.9616858 53.7916819,33.1992337 53.7916819,33.8068966 L53.7916819,34.0475096 C50.7771399,34.6306513 49.3109086,35.7793103 49.3109086,37.5578544 C49.3109086,39.0590038 50.0981218,39.9195402 51.4710815,39.9195402 C52.4097681,39.9195402 53.1760885,39.5808429 53.8036206,38.8858238 C53.8282444,39.2551724 53.8916691,39.5164751 53.9528554,39.7287356 L53.98121,39.8237548 L56.5435706,39.8237548 L56.4786535,39.6436782 C56.339119,39.2551724 56.2846483,38.6835249 56.2846483,37.6061303 Z M49.1982363,21.5509579 C48.7781405,21.9478927 48.3281977,22.148659 47.861093,22.148659 C47.4409972,22.148659 47.2104295,21.8942529 47.2104295,21.4329502 C47.2104295,20.9295019 47.4409972,20.3042146 49.1982363,19.8835249 L49.1982363,21.5509579 Z M49.3877644,24.1318008 L51.9508712,24.1318008 L51.885208,23.9509579 C51.7456735,23.5624521 51.6904566,22.9908046 51.6904566,21.91341 L51.6904566,18.1141762 C51.6904566,16.08659 50.8114639,15.1425287 48.9228982,15.1425287 C47.427566,15.1425287 46.0911689,15.6306513 45.0592106,16.554023 L44.9674312,16.6360153 L46.1642939,18.251341 L46.268012,18.1731801 C46.7142239,17.8360153 47.5947089,17.2697318 48.4856404,17.2697318 C48.9982618,17.2697318 49.1982363,17.5065134 49.1982363,18.1141762 L49.1982363,18.3555556 C46.1836944,18.9386973 44.717463,20.0873563 44.717463,21.8659004 C44.717463,23.3670498 45.5046763,24.2275862 46.8768898,24.2275862 C47.8163226,24.2275862 48.582643,23.8881226 49.2094289,23.1931034 C49.2347988,23.5624521 49.2974774,23.8237548 49.3594098,24.0360153 L49.3877644,24.1318008 Z M58.2940942,15.1425287 C57.2815364,15.1425287 56.4458219,15.6934866 55.9421546,16.2605364 L55.9421546,15.3187739 L53.3708399,15.3187739 L53.3708399,24.1318008 L55.9421546,24.1318008 L55.9421546,18.1088123 C56.4413448,17.6475096 56.8853182,17.4137931 57.2636283,17.4137931 C57.5859753,17.4137931 57.8829525,17.5180077 57.8829525,18.2743295 L57.8829525,24.1318008 L60.4378514,24.1318008 L60.4378514,17.5210728 C60.4378514,15.964751 59.6969008,15.1425287 58.2940942,15.1425287 Z M65.1626235,28.0957854 L62.6077246,28.4452107 L62.6077246,31.0114943 L61.4220545,31.0114943 L61.4220545,33.0260536 L62.6077246,33.0260536 L62.6077246,37.5578544 C62.6077246,39.3019157 63.3039047,39.9195402 65.2670878,39.9195402 C65.7871709,39.9195402 66.5587145,39.8582375 66.7407809,39.8022989 L66.8333065,39.7739464 L66.8333065,37.7716475 L66.6519863,37.8521073 C66.5676686,37.8896552 66.2438292,37.9371648 66.0169924,37.9371648 C65.3140967,37.9371648 65.1626235,37.764751 65.1626235,36.964751 L65.1626235,33.0260536 L66.942994,33.0260536 L66.942994,31.0114943 L65.1626235,31.0114943 L65.1626235,28.0957854 Z M83.533421,15.1425287 C82.520117,15.1425287 81.6851486,15.6934866 81.1814813,16.2605364 L81.1814813,15.3187739 L78.6109128,15.3187739 L78.6109128,24.1318008 L81.1814813,24.1318008 L81.1814813,18.1088123 C81.6799254,17.6475096 82.1246449,17.4137931 82.502955,17.4137931 C82.8245559,17.4137931 83.1222792,17.5180077 83.1222792,18.2743295 L83.1222792,24.1318008 L85.6771781,24.1318008 L85.6771781,17.5210728 C85.6771781,15.964751 84.9354814,15.1425287 83.533421,15.1425287 Z M90.5146225,17.2214559 C90.7578751,17.2214559 91.4853945,17.2214559 91.6234366,18.8298851 L89.3483529,18.8298851 C89.4737101,17.7908046 89.8848518,17.2214559 90.5146225,17.2214559 Z M92.4487048,21.1065134 L92.3711027,21.2329502 C92.062933,21.737931 91.4577861,22.2773946 90.6862424,22.2773946 C89.8669437,22.2773946 89.4214779,21.6773946 89.3267139,20.4436782 L93.9850765,20.4436782 L93.9850765,19.8773946 C93.9850765,16.8681992 92.720312,15.1425287 90.5146225,15.1425287 C88.7984229,15.1425287 86.793454,16.3448276 86.793454,19.7333333 C86.793454,22.5977011 88.2081994,24.3072797 90.5773011,24.3072797 C92.0144317,24.3072797 93.1120532,23.7118774 93.931352,22.4858238 L94,22.383908 L92.4487048,21.1065134 Z M73.0034171,30.835249 C71.9908594,30.835249 71.1543986,31.3854406 70.6514775,31.9532567 L70.6514775,27.3455939 L68.080909,27.6980843 L68.080909,39.8237548 L70.6514775,39.8237548 L70.6514775,33.8015326 C71.1506677,33.3402299 71.5946411,33.1065134 71.9736974,33.1065134 C72.2952983,33.1065134 72.5922754,33.2099617 72.5922754,33.9670498 L72.5922754,39.8237548 L75.1479205,39.8237548 L75.1479205,33.2130268 C75.1479205,31.6574713 74.4062238,30.835249 73.0034171,30.835249 Z M73.6025946,22.2283525 C73.0750498,22.2283525 72.3736465,21.9701149 72.3736465,19.7333333 C72.3736465,18.0398467 72.7527028,17.2858238 73.6025946,17.2858238 C74.1293933,17.2858238 74.8300505,17.5394636 74.8300505,19.7333333 C74.8300505,21.4590038 74.4517404,22.2283525 73.6025946,22.2283525 Z M73.6025946,15.1425287 C72.5385509,15.1425287 71.6244881,15.5111111 70.9611396,16.2091954 C70.1925807,17.016092 69.8038241,18.2007663 69.8038241,19.7333333 C69.8038241,23.1057471 71.7662611,24.3072797 73.6025946,24.3072797 C75.4389282,24.3072797 77.4013652,23.1057471 77.4013652,19.7333333 C77.4013652,18.2030651 77.0096239,17.0168582 76.2380803,16.2084291 C75.5717471,15.5111111 74.660669,15.1425287 73.6025946,15.1425287 Z M44.9808623,32.9141762 C45.224115,32.9141762 45.9508882,32.9141762 46.0896765,34.5226054 L43.8145928,34.5226054 C43.93995,33.4835249 44.3510917,32.9141762 44.9808623,32.9141762 Z M46.8380888,36.9256705 C46.5291728,37.4298851 45.9240259,37.9693487 45.1524823,37.9693487 C44.3331835,37.9693487 43.8869716,37.3693487 43.7929537,36.1363985 L48.4520626,36.1363985 L48.4520626,35.5693487 C48.4520626,32.5609195 47.1858057,30.835249 44.9808623,30.835249 C43.2646627,30.835249 41.2596939,32.0375479 41.2596939,35.4252874 C41.2596939,38.2896552 42.6744393,40 45.0427948,40 C46.4806716,40 47.5782931,39.4038314 48.3975919,38.1785441 L48.4654937,38.0766284 L46.9149447,36.7984674 L46.8380888,36.9256705 Z M33.6897613,19.8773946 L33.6897613,12 L31.1662017,12 L31.1662017,19.764751 C31.1662017,21.3555556 30.7289439,22.0038314 29.6566922,22.0038314 C28.5710095,22.0038314 28.1479289,21.3724138 28.1479289,19.7494253 L28.1479289,12 L25.5146818,12 L25.5146818,19.8934866 C25.5146818,22.8329502 26.8973418,24.3241379 29.6253529,24.3241379 C32.3600797,24.3241379 33.6897613,22.8689655 33.6897613,19.8773946 Z M12.2805444,18.9724138 C11.445576,17.2613027 8.81979056,12.3049808 8.69517955,12.0697318 L8.65787086,12 L6,12 L6,24.1318008 L8.41387205,24.1318008 L8.41387205,16.9754789 C9.2734642,18.651341 12.11564,23.8176245 12.2506974,24.0636015 L12.2880061,24.1318008 L14.6951626,24.1318008 L14.6951626,12 L12.2805444,12 L12.2805444,18.9724138 Z M43.6295417,21.8605364 L40.070293,21.8605364 L40.070293,12 L37.4370458,12 L37.4370458,24.1318008 L43.6295417,24.1318008 L43.6295417,21.8605364 Z M21.4554967,24.1318008 L21.4554967,19.3624521 L24.7923856,12 L22.1919702,12 L20.2011786,16.8306513 L18.2111333,12 L15.5017764,12 L18.8229957,19.3777778 L18.8229957,24.1318008 L21.4554967,24.1318008 L21.4554967,24.1318008 Z" id="Fill-4" fill="#FFFFFE" mask="url(#mask-2)"></path>
            </g>
        </g>
    </g>
</svg>