<?xml version="1.0" encoding="UTF-8"?>
<svg width="112px" height="47px" viewBox="0 0 112 47" version="1.1" xmlns="http://www.w3.org/2000/svg" xmlns:xlink="http://www.w3.org/1999/xlink">
    <title>NYULH_White</title>
    <defs>
        <polygon id="path-1" points="0 0 112 0 112 47 0 47"></polygon>
    </defs>
    <g id="Page-1" stroke="none" stroke-width="1" fill="none" fill-rule="evenodd">
        <g id="Artboard-Copy-7" transform="translate(-175.000000, -537.000000)">
            <g id="NYULH_White" transform="translate(175.000000, 537.000000)">
                <mask id="mask-2" fill="white">
                    <use xlink:href="#path-1"></use>
                </mask>
                <g id="Clip-2"></g>
                <path d="M38.9841925,9.3342864 C38.9987145,9.31997518 39.0089654,9.30566395 38.9884637,9.27367415 C38.9594195,9.22737313 38.8842464,9.12719455 38.7245036,8.89905678 C38.5237573,8.6136741 37.2936521,6.92915867 35.6945154,5.50477081 C34.0902532,4.07617377 29.2321921,0 21.5098653,0 C13.4637816,0 8.00689842,4.32535746 5.19559559,7.42079136 C2.44836073,10.4438273 1.07559754,13.7749755 1.038011,13.8684194 C0.999570211,13.9610214 0.983339657,13.9812255 1.02263468,13.9972204 C1.06534667,14.0140572 1.07816026,13.9526031 1.1285604,13.8616847 C1.18066903,13.767399 2.61750019,10.6736487 5.72864116,8.15908223 C8.8414906,5.64283205 14.0275798,2.74270428 21.5893096,2.74270428 C28.0465074,2.74270428 32.6978425,5.00471976 34.8274621,6.26494944 C36.9570817,7.52433729 38.316177,8.77699044 38.6108897,9.04806189 C38.7825919,9.20548537 38.8714328,9.28377619 38.9175618,9.32165885 C38.9491686,9.34775579 38.9688161,9.34691395 38.9841925,9.3342864" id="Fill-1" fill="#FFFFFE" mask="url(#mask-2)"></path>
                <path d="M0.132805952,21 C0.151380932,21.0027926 0.164890008,21.0046094 0.170800229,21.0200525 C0.185153623,21.056389 0.175021816,21.1445052 0.174177499,21.332547 C0.173333181,21.4733512 0.0188231182,25.4676486 1.9084052,29.6717898 C3.85708949,34.0058342 7.30950287,38.5388213 12.8271163,41.5057023 C18.0779255,44.331779 23.1632485,44.7405654 26.9981376,44.2863583 C30.6869598,43.849411 33.5204886,42.3605201 33.8320417,42.2215327 C33.9586893,42.165211 33.9831745,42.1315997 33.9966836,42.1597605 C33.9992165,42.165211 34.0017495,42.1752036 33.9983722,42.1833793 C33.9873961,42.2079065 33.941803,42.2424262 33.8683474,42.3096489 C33.7644963,42.404124 33.5964772,42.5549207 33.3735774,42.7356952 C32.9421313,43.0854347 32.0809277,43.9275347 29.1849194,45.2501858 C25.0376329,47.1442295 18.087213,48.3387943 11.1469249,44.2936256 C4.49032746,40.4137883 1.51073176,33.6996986 0.500928287,28.5753338 C-0.259801586,24.7109396 0.0694821553,21.4706259 0.0787696454,21.2090026 C0.0863685009,21.1163444 0.0855241837,21.0609311 0.0931230392,21.0309534 C0.0998775775,21.0073347 0.112542337,20.9991589 0.132805952,21" id="Fill-3" fill="#FFFFFE" mask="url(#mask-2)"></path>
                <path d="M75.7799127,28.2981938 C75.8427948,28.3045156 75.9021834,28.3054187 75.9624454,28.3045156 L77.4358079,28.4363711 C79.2515284,28.5700328 79.339738,28.8364532 79.339738,29.2961412 C79.339738,29.8867816 78.5676856,30.2688013 77.3729258,30.2688013 C75.6934498,30.2688013 75.3484716,29.8425287 75.3484716,29.2031199 C75.3484716,28.8716749 75.4978166,28.5610016 75.7799127,28.2981938 Z M77.2812227,19.9271757 C78.2427948,19.9271757 78.4445415,20.8275862 78.4445415,21.5834975 C78.4445415,22.6482759 78.0209607,23.2587849 77.2812227,23.2587849 C76.2689956,23.2587849 76.1179039,22.2093596 76.1179039,21.5834975 C76.1179039,20.9648604 76.2689956,19.9271757 77.2812227,19.9271757 Z M72.7248908,29.6899015 C72.7248908,31.3408046 74.0340611,31.9820197 76.9703057,31.9820197 C80.0489083,31.9820197 82.0384279,30.8133826 82.0384279,28.8581281 C82.0384279,26.9272578 80.8812227,26.1568966 77.9135371,25.949179 L76.6567686,25.8868637 C75.9275109,25.806486 75.89869,25.6357964 75.89869,25.4569787 C75.89869,25.3901478 75.9170306,25.2880952 76.0593886,25.1562397 C76.4375546,25.2474548 76.8419214,25.293514 77.2628821,25.293514 C79.6899563,25.293514 81.1982533,23.8431034 81.1982533,21.5085386 C81.1982533,21.1509031 81.1406114,20.7869458 81.0244541,20.3995074 C81.5248908,20.3055829 81.958952,20.3055829 82.1781659,20.3055829 L82.330131,20.3055829 L82.330131,17.6666667 L82.1615721,17.6856322 C81.4567686,17.7651067 80.6069869,18.1543514 80.0419214,18.6501642 C79.3659389,18.030624 78.4078603,17.7036946 77.2628821,17.7036946 C74.828821,17.7036946 73.2550218,19.1974548 73.2550218,21.5085386 C73.2550218,22.7232348 73.7135371,23.7591133 74.5528384,24.45 C73.8585153,24.9747126 73.419214,25.708046 73.419214,26.363711 C73.419214,26.883908 73.6349345,27.3255337 74.0462882,27.6533662 C73.1580786,28.1834975 72.7248908,28.8509031 72.7248908,29.6899015 Z M44.7528384,38.0690476 L40.409607,38.0690476 L40.409607,32.7117406 L37.3275109,32.7117406 L37.3275109,46.7922824 L40.409607,46.7922824 L40.409607,40.7639573 L44.7528384,40.7639573 L44.7528384,46.7922824 L47.8340611,46.7922824 L47.8340611,32.7117406 L44.7528384,32.7117406 L44.7528384,38.0690476 Z M68.7082969,46.7922824 L71.7170306,46.7922824 L71.7170306,33.7304598 L68.7082969,34.1440887 L68.7082969,46.7922824 Z M63.9379913,43.7514778 C63.4454148,44.2192939 62.9196507,44.4550082 62.3720524,44.4550082 C61.8812227,44.4550082 61.6113537,44.1551724 61.6113537,43.6114943 C61.6113537,43.0190476 61.8803493,42.2811987 63.9379913,41.786289 L63.9379913,43.7514778 Z M66.8558952,44.1786535 L66.8558952,39.7009852 C66.8558952,37.31133 65.8253275,36.1986864 63.6148472,36.1986864 C61.8655022,36.1986864 60.30131,36.7730706 59.0925764,37.8622332 L58.9851528,37.958867 L60.3868996,39.8617406 L60.5074236,39.7705255 C61.0296943,39.3722496 62.0611354,38.704844 63.1030568,38.704844 C63.7039301,38.704844 63.9379913,38.9848112 63.9379913,39.7009852 L63.9379913,39.9845649 C60.409607,40.6718391 58.6934498,42.0256158 58.6934498,44.121757 C58.6934498,45.8909688 59.6148472,46.9051724 61.2218341,46.9051724 C62.320524,46.9051724 63.2174672,46.5059934 63.9519651,45.6868637 C63.980786,46.1221675 64.0550218,46.4301314 64.1266376,46.6802956 L64.1598253,46.7922824 L67.158952,46.7922824 L67.0829694,46.5800493 C66.9196507,46.1221675 66.8558952,45.4484401 66.8558952,44.1786535 Z M58.5615721,25.256486 C58.069869,25.7243021 57.5432314,25.9609195 56.9965066,25.9609195 C56.5048035,25.9609195 56.2349345,25.6610837 56.2349345,25.1174056 C56.2349345,24.5240558 56.5048035,23.78711 58.5615721,23.2912972 L58.5615721,25.256486 Z M58.7834061,28.2981938 L61.7834061,28.2981938 L61.7065502,28.0850575 C61.5432314,27.6271757 61.4786026,26.9534483 61.4786026,25.6836617 L61.4786026,21.2059934 C61.4786026,18.8163383 60.4497817,17.7036946 58.2393013,17.7036946 C56.489083,17.7036946 54.9248908,18.2789819 53.7170306,19.3672414 L53.609607,19.4638752 L55.0104803,21.3676519 L55.1318777,21.2755337 C55.6541485,20.8781609 56.6847162,20.2107553 57.7275109,20.2107553 C58.3275109,20.2107553 58.5615721,20.4898194 58.5615721,21.2059934 L58.5615721,21.4904762 C55.0331878,22.1777504 53.3170306,23.5315271 53.3170306,25.6276683 C53.3170306,27.3968801 54.2384279,28.4110837 55.8445415,28.4110837 C56.9441048,28.4110837 57.841048,28.0110016 58.5746725,27.1918719 C58.6043668,27.6271757 58.6777293,27.9351396 58.7502183,28.1853038 L58.7834061,28.2981938 Z M69.2078603,17.7036946 C68.0227074,17.7036946 67.0445415,18.3530378 66.4550218,19.0213465 L66.4550218,17.9114122 L63.4454148,17.9114122 L63.4454148,28.2981938 L66.4550218,28.2981938 L66.4550218,21.1996716 C67.0393013,20.6559934 67.558952,20.3805419 68.0017467,20.3805419 C68.3790393,20.3805419 68.7266376,20.5033662 68.7266376,21.3947455 L68.7266376,28.2981938 L71.7170306,28.2981938 L71.7170306,20.5069787 C71.7170306,18.6727422 70.8497817,17.7036946 69.2078603,17.7036946 Z M77.2471616,32.9700328 L74.2567686,33.3818555 L74.2567686,36.4064039 L72.8689956,36.4064039 L72.8689956,38.7807061 L74.2567686,38.7807061 L74.2567686,44.121757 C74.2567686,46.1772578 75.0716157,46.9051724 77.3694323,46.9051724 C77.9781659,46.9051724 78.8812227,46.8329228 79.0943231,46.7669951 L79.2026201,46.7335796 L79.2026201,44.3737274 L78.990393,44.468555 C78.8917031,44.5128079 78.5126638,44.5688013 78.2471616,44.5688013 C77.4244541,44.5688013 77.2471616,44.3655993 77.2471616,43.4227422 L77.2471616,38.7807061 L79.3310044,38.7807061 L79.3310044,36.4064039 L77.2471616,36.4064039 L77.2471616,32.9700328 Z M98.749345,17.7036946 C97.5633188,17.7036946 96.5860262,18.3530378 95.9965066,19.0213465 L95.9965066,17.9114122 L92.9877729,17.9114122 L92.9877729,28.2981938 L95.9965066,28.2981938 L95.9965066,21.1996716 C96.5799127,20.6559934 97.1004367,20.3805419 97.5432314,20.3805419 C97.9196507,20.3805419 98.2681223,20.5033662 98.2681223,21.3947455 L98.2681223,28.2981938 L101.258515,28.2981938 L101.258515,20.5069787 C101.258515,18.6727422 100.390393,17.7036946 98.749345,17.7036946 Z M106.920524,20.1538588 C107.20524,20.1538588 108.056769,20.1538588 108.218341,22.0495074 L105.555459,22.0495074 C105.702183,20.8248768 106.183406,20.1538588 106.920524,20.1538588 Z M109.184279,24.7326765 L109.09345,24.8816913 C108.732751,25.4768473 108.024454,26.1126437 107.121397,26.1126437 C106.162445,26.1126437 105.641048,25.4055008 105.530131,23.9514778 L110.982533,23.9514778 L110.982533,23.2840722 C110.982533,19.7375205 109.502183,17.7036946 106.920524,17.7036946 C104.91179,17.7036946 102.565066,19.1206897 102.565066,23.1142857 C102.565066,26.4901478 104.220961,28.5050082 106.993886,28.5050082 C108.675983,28.5050082 109.960699,27.8032841 110.919651,26.3582923 L111,26.2381773 L109.184279,24.7326765 Z M86.4244541,36.1986864 C85.2393013,36.1986864 84.260262,36.8471264 83.6716157,37.5163383 L83.6716157,32.0858785 L80.6628821,32.5013136 L80.6628821,46.7922824 L83.6716157,46.7922824 L83.6716157,39.6946634 C84.2558952,39.1509852 84.7755459,38.8755337 85.219214,38.8755337 C85.5956332,38.8755337 85.9432314,38.9974548 85.9432314,39.8897373 L85.9432314,46.7922824 L88.9344978,46.7922824 L88.9344978,39.0010673 C88.9344978,37.167734 88.0663755,36.1986864 86.4244541,36.1986864 Z M87.1257642,26.054844 C86.5082969,26.054844 85.6873362,25.7504926 85.6873362,23.1142857 C85.6873362,21.1183908 86.1310044,20.2297209 87.1257642,20.2297209 C87.7423581,20.2297209 88.5624454,20.5286535 88.5624454,23.1142857 C88.5624454,25.1481117 88.1196507,26.054844 87.1257642,26.054844 Z M87.1257642,17.7036946 C85.8803493,17.7036946 84.8104803,18.1380952 84.0340611,18.9608374 C83.1344978,19.9118227 82.679476,21.308046 82.679476,23.1142857 C82.679476,27.0889163 84.9764192,28.5050082 87.1257642,28.5050082 C89.2751092,28.5050082 91.5720524,27.0889163 91.5720524,23.1142857 C91.5720524,21.3107553 91.1135371,19.9127258 90.2104803,18.9599343 C89.4305677,18.1380952 88.3641921,17.7036946 87.1257642,17.7036946 Z M53.6253275,38.6488506 C53.9100437,38.6488506 54.7606987,38.6488506 54.9231441,40.5444992 L52.260262,40.5444992 C52.4069869,39.3198686 52.8882096,38.6488506 53.6253275,38.6488506 Z M55.7991266,43.3766831 C55.4375546,43.970936 54.7292576,44.6067323 53.8262009,44.6067323 C52.8672489,44.6067323 52.3449782,43.8995895 52.2349345,42.4464696 L57.6882096,42.4464696 L57.6882096,41.7781609 C57.6882096,38.2325123 56.2061135,36.1986864 53.6253275,36.1986864 C51.6165939,36.1986864 49.269869,37.6156814 49.269869,41.6083744 C49.269869,44.9842365 50.9257642,47 53.6978166,47 C55.380786,47 56.6655022,46.2973727 57.6244541,44.8532841 L57.7039301,44.7331691 L55.889083,43.2267652 L55.7991266,43.3766831 Z M40.409607,23.2840722 L40.409607,14 L37.4558952,14 L37.4558952,23.1513136 C37.4558952,25.0261905 36.9441048,25.7902299 35.689083,25.7902299 C34.4183406,25.7902299 33.9231441,25.0460591 33.9231441,23.1332512 L33.9231441,14 L30.841048,14 L30.841048,23.3030378 C30.841048,26.7674056 32.4593886,28.5248768 35.6524017,28.5248768 C38.8532751,28.5248768 40.409607,26.8098522 40.409607,23.2840722 Z M15.3510917,22.2174877 C14.3737991,20.200821 11.3004367,14.3594417 11.1545852,14.0821839 L11.110917,14 L8,14 L8,28.2981938 L10.8253275,28.2981938 L10.8253275,19.8639573 C11.831441,21.8390805 15.1580786,27.9279146 15.3161572,28.2178161 L15.3598253,28.2981938 L18.1772926,28.2981938 L18.1772926,14 L15.3510917,14 L15.3510917,22.2174877 Z M52.0436681,25.6213465 L47.8777293,25.6213465 L47.8777293,14 L44.7956332,14 L44.7956332,28.2981938 L52.0436681,28.2981938 L52.0436681,25.6213465 Z M26.0899563,28.2981938 L26.0899563,22.6771757 L29.9956332,14 L26.9519651,14 L24.6218341,19.6932677 L22.2925764,14 L19.1213974,14 L23.0087336,22.6952381 L23.0087336,28.2981938 L26.0899563,28.2981938 L26.0899563,28.2981938 Z" id="Fill-4" fill="#FFFFFE" mask="url(#mask-2)"></path>
            </g>
        </g>
    </g>
</svg>