<?xml version="1.0" encoding="UTF-8"?>
<svg width="71px" height="30px" viewBox="0 0 71 30" version="1.1" xmlns="http://www.w3.org/2000/svg" xmlns:xlink="http://www.w3.org/1999/xlink">
    <title>NYULH_White</title>
    <defs>
        <polygon id="path-1" points="0 0 71 0 71 30 0 30"></polygon>
    </defs>
    <g id="Page-1" stroke="none" stroke-width="1" fill="none" fill-rule="evenodd">
        <g id="Artboard" transform="translate(-221.000000, -210.000000)">
            <g id="NYULH_White" transform="translate(221.000000, 210.000000)">
                <mask id="mask-2" fill="white">
                    <use xlink:href="#path-1"></use>
                </mask>
                <g id="Clip-2"></g>
                <path d="M24.9900163,6.00061269 C24.9991881,5.99141261 25.0056624,5.98221254 24.9927139,5.96164767 C24.9743702,5.93188273 24.9268925,5.86748221 24.8260023,5.72082221 C24.6992151,5.53736192 23.9223066,4.45445915 22.9123255,3.53878124 C21.8991073,2.62039742 18.8308582,0 13.9535991,0 C8.87186206,0 5.42540953,2.78058694 3.64984985,4.77050873 C1.91475415,6.71388898 1.04774582,8.8553414 1.02400695,8.91541246 C0.999728554,8.97494235 0.989477678,8.98793069 1.01429559,8.99821313 C1.04127158,9.00903674 1.04936438,8.96953054 1.08119604,8.91108302 C1.11410675,8.85047077 2.02157907,6.86163134 3.9865102,5.24512429 C5.95252038,3.62753489 9.22794513,1.76316704 14.0037745,1.76316704 C18.0820047,1.76316704 21.01969,3.21731984 22.3647129,4.0274675 C23.7097358,4.83707397 24.5681118,5.642351 24.7542461,5.81661122 C24.8626896,5.91781203 24.9187997,5.96814184 24.9479337,5.99249498 C24.967896,6.00927158 24.9803049,6.0087304 24.9900163,6.00061269" id="Fill-1" fill="#FFFFFE" mask="url(#mask-2)"></path>
                <path d="M0.0859332628,14 C0.0979523677,14.0017185 0.106693535,14.0028366 0.110517795,14.01234 C0.119805286,14.0347009 0.11324941,14.0889263 0.112703087,14.2046443 C0.112156764,14.291293 0.0121796647,16.7493222 1.23485042,19.336486 C2.49576379,22.0035903 4.72967833,24.7931208 8.2998988,26.6188937 C11.6974812,28.3580179 14.9879843,28.6095787 17.4693832,28.3300666 C19.8562681,28.061176 21.6897279,27.1449354 21.8913211,27.0594047 C21.9732696,27.0247452 21.9891129,27.0040613 21.9978541,27.0213911 C21.9994931,27.0247452 22.001132,27.0308945 21.9989467,27.0359257 C21.9918445,27.0510194 21.9623431,27.0722623 21.914813,27.1136301 C21.8476153,27.1717686 21.738897,27.2645666 21.5946677,27.3758124 C21.3154967,27.5910367 20.7582473,28.1092521 18.8843596,28.9231913 C16.2008213,30.0887566 11.7034908,30.8238734 7.21271613,28.3345388 C2.905506,25.9469467 0.977532315,21.8151991 0.324130068,18.6617439 C-0.168106908,16.2836551 0.0449590416,14.289616 0.0509685941,14.128617 C0.0558855006,14.0715965 0.0553391777,14.0374961 0.0602560842,14.0190483 C0.0646266678,14.0045136 0.072821512,13.9994824 0.0859332628,14" id="Fill-3" fill="#FFFFFE" mask="url(#mask-2)"></path>
                <path d="M48.4317887,18.0988506 C48.4720821,18.1028736 48.5101369,18.1034483 48.5487514,18.1028736 L49.4928478,18.1867816 C50.6563192,18.2718391 50.7128418,18.4413793 50.7128418,18.733908 C50.7128418,19.1097701 50.2181286,19.3528736 49.4525544,19.3528736 C48.3763853,19.3528736 48.1553313,19.0816092 48.1553313,18.6747126 C48.1553313,18.4637931 48.2510281,18.266092 48.4317887,18.0988506 Z M49.3937932,12.7718391 C50.0099462,12.7718391 50.1392208,13.3448276 50.1392208,13.8258621 C50.1392208,14.5034483 49.8678001,14.891954 49.3937932,14.891954 C48.7451817,14.891954 48.6483656,14.2241379 48.6483656,13.8258621 C48.6483656,13.4321839 48.7451817,12.7718391 49.3937932,12.7718391 Z M46.4742019,18.9844828 C46.4742019,20.0350575 47.3130877,20.4431034 49.1945648,20.4431034 C51.1672616,20.4431034 52.4420995,19.6994253 52.4420995,18.4551724 C52.4420995,17.2264368 51.7005893,16.7362069 49.7989655,16.604023 L48.9936575,16.5643678 C48.5263662,16.5132184 48.5078984,16.4045977 48.5078984,16.2908046 C48.5078984,16.2482759 48.5196507,16.1833333 48.6108704,16.0994253 C48.8531903,16.1574713 49.1122991,16.1867816 49.382041,16.1867816 C50.9372536,16.1867816 51.9037351,15.2637931 51.9037351,13.7781609 C51.9037351,13.5505747 51.8667995,13.3189655 51.7923687,13.0724138 C52.1130368,13.0126437 52.3911731,13.0126437 52.5316403,13.0126437 L52.629016,13.0126437 L52.629016,11.3333333 L52.5210073,11.3454023 C52.0693857,11.395977 51.5248654,11.6436782 51.1627846,11.9591954 C50.7296307,11.5649425 50.1157163,11.3568966 49.382041,11.3568966 C47.8223513,11.3568966 46.8138975,12.3074713 46.8138975,13.7781609 C46.8138975,14.5511494 47.1077034,15.2103448 47.6455081,15.65 C47.200602,15.983908 46.919108,16.4505747 46.919108,16.8678161 C46.919108,17.1988506 47.0573367,17.4798851 47.3209225,17.6885057 C46.7517785,18.0258621 46.4742019,18.4505747 46.4742019,18.9844828 Z M28.5503625,24.3166667 L25.767321,24.3166667 L25.767321,20.9074713 L23.7923856,20.9074713 L23.7923856,29.8678161 L25.767321,29.8678161 L25.767321,26.0316092 L28.5503625,26.0316092 L28.5503625,29.8678161 L30.5247382,29.8678161 L30.5247382,20.9074713 L28.5503625,20.9074713 L28.5503625,24.3166667 Z M43.9004621,29.8678161 L45.8283885,29.8678161 L45.8283885,21.5557471 L43.9004621,21.8189655 L43.9004621,29.8678161 Z M40.8437614,27.9327586 C40.5281299,28.2304598 40.1912325,28.3804598 39.8403443,28.3804598 C39.525832,28.3804598 39.3529063,28.1896552 39.3529063,27.8436782 C39.3529063,27.4666667 39.5252724,26.9971264 40.8437614,26.6821839 L40.8437614,27.9327586 Z M42.7134862,28.2045977 L42.7134862,25.3551724 C42.7134862,23.8344828 42.0531225,23.1264368 40.6366982,23.1264368 C39.5157587,23.1264368 38.5134608,23.491954 37.7389325,24.1850575 L37.6700979,24.2465517 L38.5683046,25.4574713 L38.6455336,25.3994253 C38.9801925,25.145977 39.6411159,24.7212644 40.3087548,24.7212644 C40.6937805,24.7212644 40.8437614,24.8994253 40.8437614,25.3551724 L40.8437614,25.5356322 C38.582855,25.9729885 37.4831814,26.8344828 37.4831814,28.1683908 C37.4831814,29.2942529 38.0735914,29.9396552 39.1033111,29.9396552 C39.8073261,29.9396552 40.3820664,29.6856322 40.8527155,29.1643678 C40.8711833,29.4413793 40.9187519,29.6373563 40.9646415,29.7965517 L40.9859075,29.8678161 L42.907678,29.8678161 L42.8589901,29.7327586 C42.7543393,29.4413793 42.7134862,29.0126437 42.7134862,28.2045977 Z M37.3986772,16.1632184 C37.0836054,16.4609195 36.7461483,16.6114943 36.3958197,16.6114943 C36.0807479,16.6114943 35.9078221,16.4206897 35.9078221,16.0747126 C35.9078221,15.6971264 36.0807479,15.2281609 37.3986772,14.9126437 L37.3986772,16.1632184 Z M37.5408233,18.0988506 L39.4631534,18.0988506 L39.413906,17.9632184 C39.3092551,17.6718391 39.2678425,17.2431034 39.2678425,16.4350575 L39.2678425,13.5856322 C39.2678425,12.0649425 38.608598,11.3568966 37.1921737,11.3568966 C36.0706745,11.3568966 35.0683766,11.7229885 34.2944079,12.4155172 L34.2255734,12.4770115 L35.1232204,13.6885057 L35.201009,13.6298851 C35.535668,13.3770115 36.1960317,12.9522989 36.8642303,12.9522989 C37.2486963,12.9522989 37.3986772,13.1298851 37.3986772,13.5856322 L37.3986772,13.7666667 C35.1377708,14.204023 34.0380973,15.0655172 34.0380973,16.3994253 C34.0380973,17.5252874 34.6285072,18.1706897 35.6576674,18.1706897 C36.3622419,18.1706897 36.9369822,17.916092 37.4070717,17.3948276 C37.4260991,17.6718391 37.4731081,17.8678161 37.5195574,18.0270115 L37.5408233,18.0988506 Z M44.2205707,11.3568966 C43.4611523,11.3568966 42.8343664,11.7701149 42.4566159,12.1954023 L42.4566159,11.4890805 L40.5281299,11.4890805 L40.5281299,18.0988506 L42.4566159,18.0988506 L42.4566159,13.5816092 C42.8310086,13.2356322 43.1639886,13.0603448 43.4477212,13.0603448 C43.6894815,13.0603448 43.9122144,13.1385057 43.9122144,13.7057471 L43.9122144,18.0988506 L45.8283885,18.0988506 L45.8283885,13.1408046 C45.8283885,11.9735632 45.2726756,11.3568966 44.2205707,11.3568966 Z M49.3719676,21.0718391 L47.4557934,21.333908 L47.4557934,23.2586207 L46.5665409,23.2586207 L46.5665409,24.7695402 L47.4557934,24.7695402 L47.4557934,28.1683908 C47.4557934,29.4764368 47.9779285,29.9396552 49.4503159,29.9396552 C49.8403782,29.9396552 50.4190359,29.8936782 50.5555857,29.8517241 L50.6249799,29.8304598 L50.6249799,28.3287356 L50.4889897,28.3890805 C50.4257515,28.4172414 50.1828719,28.4528736 50.0127443,28.4528736 C49.4855726,28.4528736 49.3719676,28.3235632 49.3719676,27.7235632 L49.3719676,24.7695402 L50.7072455,24.7695402 L50.7072455,23.2586207 L49.3719676,23.2586207 L49.3719676,21.0718391 Z M63.1500657,11.3568966 C62.3900878,11.3568966 61.7638614,11.7701149 61.386111,12.1954023 L61.386111,11.4890805 L59.4581846,11.4890805 L59.4581846,18.0988506 L61.386111,18.0988506 L61.386111,13.5816092 C61.759944,13.2356322 62.0934837,13.0603448 62.3772163,13.0603448 C62.6184169,13.0603448 62.8417094,13.1385057 62.8417094,13.7057471 L62.8417094,18.0988506 L64.7578836,18.0988506 L64.7578836,13.1408046 C64.7578836,11.9735632 64.2016111,11.3568966 63.1500657,11.3568966 Z M68.3859668,12.916092 C68.5684063,12.916092 69.1140459,12.916092 69.2175775,14.1224138 L67.5112647,14.1224138 C67.6052826,13.3431034 67.9136389,12.916092 68.3859668,12.916092 Z M69.8365286,15.8298851 L69.778327,15.9247126 C69.5471997,16.3034483 69.0933396,16.708046 68.5146818,16.708046 C67.9002077,16.708046 67.5661084,16.258046 67.4950354,15.3327586 L70.9888074,15.3327586 L70.9888074,14.908046 C70.9888074,12.6511494 70.040234,11.3568966 68.3859668,11.3568966 C67.0988171,11.3568966 65.5950905,12.2586207 65.5950905,14.8 C65.5950905,16.9482759 66.6561496,18.2304598 68.4329758,18.2304598 C69.5108238,18.2304598 70.3340399,17.783908 70.948514,16.8643678 L71,16.787931 L69.8365286,15.8298851 Z M55.2525629,23.1264368 C54.4931445,23.1264368 53.865799,23.5390805 53.4886081,23.9649425 L53.4886081,20.5091954 L51.5606817,20.7735632 L51.5606817,29.8678161 L53.4886081,29.8678161 L53.4886081,25.3511494 C53.8630008,25.0051724 54.1959808,24.8298851 54.480273,24.8298851 C54.7214737,24.8298851 54.9442066,24.9074713 54.9442066,25.4752874 L54.9442066,29.8678161 L56.8609403,29.8678161 L56.8609403,24.9097701 C56.8609403,23.7431034 56.3046678,23.1264368 55.2525629,23.1264368 Z M55.701946,16.6712644 C55.3062874,16.6712644 54.7802349,16.4775862 54.7802349,14.8 C54.7802349,13.5298851 55.0645271,12.9643678 55.701946,12.9643678 C56.097045,12.9643678 56.6225378,13.1545977 56.6225378,14.8 C56.6225378,16.0942529 56.3388053,16.6712644 55.701946,16.6712644 Z M55.701946,11.3568966 C54.9039132,11.3568966 54.218366,11.6333333 53.7208547,12.1568966 C53.1444355,12.762069 52.8528681,13.6505747 52.8528681,14.8 C52.8528681,17.3293103 54.3246958,18.2304598 55.701946,18.2304598 C57.0791962,18.2304598 58.5510239,17.3293103 58.5510239,14.8 C58.5510239,13.6522989 58.257218,12.7626437 57.6785602,12.1563218 C57.1788104,11.6333333 56.4955018,11.3568966 55.701946,11.3568966 Z M34.2356468,24.6856322 C34.4180862,24.6856322 34.9631662,24.6856322 35.0672574,25.891954 L33.3609446,25.891954 C33.4549625,25.1126437 33.7633188,24.6856322 34.2356468,24.6856322 Z M35.6285666,27.6942529 C35.3968796,28.0724138 34.9430195,28.4770115 34.3643617,28.4770115 C33.7498876,28.4770115 33.4152287,28.0270115 33.3447153,27.1022989 L36.8390469,27.1022989 L36.8390469,26.6770115 C36.8390469,24.4206897 35.8893543,23.1264368 34.2356468,23.1264368 C32.9484971,23.1264368 31.4447704,24.0281609 31.4447704,26.5689655 C31.4447704,28.7172414 32.5058295,30 34.2820961,30 C35.3605037,30 36.1837198,29.5528736 36.7981939,28.633908 L36.8491203,28.5574713 L35.6862085,27.5988506 L35.6285666,27.6942529 Z M25.767321,14.908046 L25.767321,9 L23.8746513,9 L23.8746513,14.8235632 C23.8746513,16.0166667 23.5467079,16.5028736 22.7425192,16.5028736 C21.9282571,16.5028736 21.6109467,16.0293103 21.6109467,14.812069 L21.6109467,9 L19.6360114,9 L19.6360114,14.9201149 C19.6360114,17.1247126 20.6730063,18.2431034 22.7190147,18.2431034 C24.7700598,18.2431034 25.767321,17.1517241 25.767321,14.908046 Z M9.71040828,14.2293103 C9.08418196,12.945977 7.11484292,9.22873563 7.02138466,9.05229885 L6.99340315,9 L5,9 L5,18.0988506 L6.81040404,18.0988506 L6.81040404,12.7316092 C7.45509815,13.9885057 9.58672998,17.8632184 9.68802306,18.0477011 L9.71600458,18.0988506 L11.5213719,18.0988506 L11.5213719,9 L9.71040828,9 L9.71040828,14.2293103 Z M33.2221563,16.3954023 L30.5527197,16.3954023 L30.5527197,9 L28.5777844,9 L28.5777844,18.0988506 L33.2221563,18.0988506 L33.2221563,16.3954023 Z M16.5916225,18.0988506 L16.5916225,14.5218391 L19.0942892,9 L17.1439776,9 L15.650884,12.6229885 L14.1583499,9 L12.1263323,9 L14.6172468,14.5333333 L14.6172468,18.0988506 L16.5916225,18.0988506 L16.5916225,18.0988506 Z" id="Fill-4" fill="#FFFFFE" mask="url(#mask-2)"></path>
            </g>
        </g>
    </g>
</svg>