<?xml version="1.0" encoding="UTF-8"?>
<svg width="94px" height="26px" viewBox="0 0 94 26" version="1.1" xmlns="http://www.w3.org/2000/svg" xmlns:xlink="http://www.w3.org/1999/xlink">
    <title>Untitled</title>
    <g id="Page-1" stroke="none" stroke-width="1" fill="none" fill-rule="evenodd">
        <g id="Artboard" transform="translate(-194.000000, -212.000000)" fill="#FFFFFF" fill-rule="nonzero">
            <g id="Untitled" transform="translate(194.000000, 212.000000)">
                <path d="M56.3509827,0 L53.7458294,0.34452764 L53.7458294,3.33572266 L51.3101375,3.33572266 L51.3101375,0.776446429 L48.7057431,1.12097407 L48.7057431,3.33572266 L47.4964967,3.33572266 L47.4964967,5.32708234 L48.7054901,5.32708234 L48.7054901,9.80568982 C48.7054901,11.5293354 49.4149518,12.1400661 51.4161142,12.1400661 C51.9465031,12.1400661 52.7323489,12.0791189 52.9182506,12.0237124 L53.0125926,11.9952536 L53.0125926,10.0172419 L52.8277026,10.0960702 C52.7417072,10.1330918 52.4118897,10.180691 52.1799552,10.180691 C51.4644233,10.180691 51.3098846,10.0096864 51.3098846,9.2193884 L51.3098846,5.32708234 L53.7468411,5.32708234 L53.7468411,9.80568982 C53.7468411,11.5293354 54.4557969,12.1400661 56.4572122,12.1400661 C56.9873482,12.1400661 57.7734469,12.0791189 57.9590957,12.0237124 L58.0536906,11.9952536 L58.0536906,10.0172419 L57.8688006,10.0960702 C57.7822994,10.1330918 57.4529878,10.180691 57.2208003,10.180691 C56.5057743,10.180691 56.3509827,10.0096864 56.3509827,9.2193884 L56.3509827,5.32708234 L58.1649787,5.32708234 L58.1649787,3.33572266 L56.3514885,3.33572266 L56.3509827,0 Z M22.9215548,12.0390751 L25.5418837,12.0390751 L25.5418837,0.0833615855 L22.9223136,0.0833615855 L22.9215548,12.0390751 Z M22.111428,3.17151796 C21.0106875,3.17151796 20.314884,3.75404167 19.8871836,4.36703895 L19.8871836,3.34478917 L17.2471263,3.34478917 L17.2471263,12.0390751 L19.8871836,12.0390751 L19.8871836,6.42866414 C20.1254413,6.14004669 20.7269029,5.56407102 21.7315309,5.56407102 C21.8213202,5.56407102 22.1377325,5.59504829 22.1865475,5.60688513 L22.3686553,5.65146217 L22.4030534,3.33798929 L22.4055827,3.20652479 L22.275325,3.18889545 C22.275325,3.18889545 22.1478496,3.17126612 22.111428,3.17126612 L22.111428,3.17151796 Z M36.1575039,3.17151796 C35.1655222,3.17151796 34.3141682,3.74421961 33.7827676,4.34714298 C33.4929126,3.55634123 32.8380833,3.17126612 31.7902047,3.17126612 C30.8523495,3.17126612 30.044752,3.69485746 29.5340914,4.24338173 L29.5340914,3.34478917 L26.89454,3.34478917 L26.89454,12.0390751 L29.5343443,12.0390751 L29.5343443,6.10906942 C29.8937543,5.77008243 30.3163962,5.43764348 30.7618015,5.43764348 C31.1325932,5.43764348 31.3088837,5.56155254 31.3088837,6.26622238 L31.3088837,12.0390751 L33.9489409,12.0390751 L33.9489409,6.10906942 C34.290646,5.78745992 34.7284635,5.43764348 35.1604637,5.43764348 C35.6040985,5.43764348 35.7394147,5.63131435 35.7394147,6.26622238 L35.7394147,12.0390751 L38.3632846,12.0390751 L38.3632846,5.60436665 C38.3632846,4.01268925 37.6007082,3.17151796 36.1577568,3.17151796 L36.1575039,3.17151796 Z M44.191746,9.32365334 C43.7326825,9.76816451 43.2933475,9.9935682 42.8851225,9.9935682 C42.5092722,9.9935682 42.258874,9.85505197 42.258874,9.1808557 L42.258874,3.34478917 L39.6334865,3.34478917 L39.6334865,9.85857784 C39.6334865,11.4205372 40.3705173,12.21285 41.8238387,12.21285 C42.9759235,12.21285 43.7749214,11.5842382 44.1904813,11.1470306 L44.1904813,12.039327 L46.8305386,12.039327 L46.8305386,3.34478917 L44.1904813,3.34478917 L44.191746,9.32365334 Z M71.7836071,3.18864361 C71.7836071,3.18864361 71.6561316,3.17126612 71.61971,3.17126612 C70.5194754,3.17126612 69.823166,3.75404167 69.3954656,4.36703895 L69.3954656,3.34478917 L66.7556613,3.34478917 L66.7556613,12.0390751 L69.3954656,12.0390751 L69.3954656,6.42866414 C69.6337233,6.14004669 70.2351849,5.56407102 71.2398129,5.56407102 C71.3298551,5.56407102 71.6462674,5.59504829 71.6945766,5.60688513 L71.8766844,5.65146217 L71.9113355,3.33798929 L71.9143706,3.20652479 L71.7836071,3.18889545 L71.7836071,3.18864361 Z M12.7604454,5.24850587 C13.1787875,5.24850587 13.7400336,5.41321425 13.8654856,6.79535438 L11.5977376,6.79535438 C11.7267307,5.78242297 12.126862,5.24850587 12.7604454,5.24850587 Z M14.628062,9.16473745 C14.3174671,9.65684784 13.7094294,10.1827058 12.9344595,10.1827058 C12.1190212,10.1827058 11.6736159,9.60395982 11.5752271,8.41549057 L16.2953601,8.41549057 L16.2953601,7.84178153 C16.2953601,4.8737565 15.0072004,3.17126612 12.7601924,3.17126612 C11.0127163,3.17126612 8.97209725,4.35746874 8.97209725,7.69973943 C8.97209725,10.5254705 10.4117606,12.2125982 12.8234243,12.2125982 C14.2868628,12.2125982 15.4037907,11.6245338 16.2379456,10.4149094 L16.3161002,10.3015779 L14.7168396,9.02395459 L14.6278091,9.1649893 L14.628062,9.16473745 Z M62.2694862,5.24850587 C62.6880812,5.24850587 63.2493273,5.41321425 63.3747794,6.79535438 L61.1067785,6.79535438 C61.2357715,5.78242297 61.6359028,5.24850587 62.2694862,5.24850587 Z M64.1371029,9.16473745 C63.8265079,9.65684784 63.2184702,10.1827058 62.4437532,10.1827058 C61.628315,10.1827058 61.1826567,9.60395982 61.0842679,8.41549057 L65.8051597,8.41549057 L65.8051597,7.84178153 C65.8051597,4.8737565 64.5164941,3.17126612 62.2694862,3.17126612 C60.5220101,3.17126612 58.4811381,4.35746874 58.4811381,7.69973943 C58.4811381,10.5254705 59.9213073,12.2125982 62.3332239,12.2125982 C63.7964095,12.2125982 64.9130844,11.6245338 65.7472393,10.4149094 L65.8256468,10.3015779 L64.2261333,9.02395459 L64.1371029,9.1649893 L64.1371029,9.16473745 Z M4.81042815,5.78720807 L3.95477441,5.78720807 L3.95477441,2.38121991 L4.79449371,2.38121991 C5.96251292,2.38121991 6.41752949,2.84764183 6.41752949,4.04467391 C6.41752949,5.28225346 5.95163703,5.78695623 4.81042815,5.78695623 L4.81042815,5.78720807 Z M4.77881221,0.0833615855 L1.28335414,0.0833615855 L1.28335414,12.0390751 L3.95477441,12.0390751 L3.95477441,7.97475711 L4.74669042,7.97475711 C8.27047636,7.97475711 9.01003638,5.80332633 9.01003638,3.98196383 C9.01003638,1.43175412 7.54659786,0.0833615855 4.77855928,0.0833615855 L4.77881221,0.0833615855 Z M78.4464762,14.217054 L75.8226063,14.217054 L75.8226063,17.10071 L74.6199361,17.10071 L74.6199361,19.114736 L75.8226063,19.114736 L75.8226063,23.5510331 C75.8226063,25.2777008 76.5323209,25.8894389 78.5347479,25.8894389 C79.0633664,25.8894389 79.8476946,25.8287436 80.0335963,25.7730852 L80.1398259,25.7413524 L80.1398259,23.7358893 L79.9319195,23.824036 C79.8555353,23.8567762 79.539376,23.9068938 79.2945421,23.9068938 C78.5891273,23.9068938 78.4464762,23.7492372 78.4464762,22.9680057 L78.4464762,19.114736 L80.2506081,19.114736 L80.2506081,17.1004582 L78.4464762,17.1004582 L78.4464762,14.2168021 L78.4464762,14.217054 Z M84.3558744,19.0041749 C84.7744694,19.0041749 85.3354626,19.1688832 85.4611676,20.5510234 L83.1931667,20.5510234 C83.3221597,19.538092 83.722291,19.0041749 84.3558744,19.0041749 Z M86.223491,22.9204064 C85.913149,23.4125168 85.3048584,23.9383748 84.5298885,23.9383748 C83.7144502,23.9383748 83.268792,23.3596288 83.1706561,22.1711596 L87.891295,22.1711596 L87.891295,21.5971987 C87.891295,18.6291736 86.6028823,16.9269351 84.3558744,16.9269351 C82.6086512,16.9269351 80.5677792,18.112634 80.5677792,21.4551566 C80.5677792,24.2808877 82.0074425,25.9680153 84.4193592,25.9680153 C85.8825448,25.9680153 86.9992197,25.379951 87.8336275,24.1703265 L87.9117821,24.0569951 L86.3125215,22.7793717 L86.223491,22.9204064 Z M93.8692365,16.9443126 C93.8692365,16.9443126 93.7420139,16.927187 93.7055924,16.927187 C92.6051048,16.927187 91.9087954,17.5097107 91.481095,18.1229598 L91.481095,17.1004582 L88.8410378,17.1004582 L88.8410378,25.7947441 L91.481095,25.7947441 L91.481095,20.1835776 C91.7193527,19.895212 92.3205614,19.3189845 93.3256953,19.3189845 C93.4154845,19.3189845 93.7318968,19.3502136 93.7804589,19.3617986 L93.9625667,19.4066275 L93.9969649,17.0931546 L94,16.9616901 L93.8692365,16.9440608 L93.8692365,16.9443126 Z M55.3104389,21.3365363 C55.0178018,23.0838556 54.5430569,23.7336226 53.558663,23.7336226 C52.271515,23.7336226 51.6187091,22.4109186 51.6187091,19.8015246 C51.6187091,17.2548408 52.261145,15.9636177 53.5270471,15.9636177 C54.4590849,15.9636177 54.9080313,16.5705706 55.1837222,18.2030474 L55.2087621,18.3503783 L57.7613064,17.9061189 L57.7410722,17.763825 C57.3434702,14.9746118 55.9908139,13.618412 53.6059605,13.618412 C50.6153457,13.618412 48.8999914,15.8719451 48.8999914,19.8012728 C48.8999914,23.7985993 50.5488258,26 53.5427286,26 C55.9318818,26 57.3462524,24.6098007 57.8667772,21.7498184 L57.8935875,21.6009764 L55.33472,21.1909684 L55.3106918,21.3367882 L55.3104389,21.3365363 Z M71.794483,16.927187 C70.7777144,16.927187 69.9506415,17.4341564 69.4278403,17.9967841 L69.4278403,17.1004582 L66.7872772,17.1004582 L66.7872772,25.7947441 L69.4275874,25.7947441 L69.4275874,19.8662495 C69.9271192,19.418968 70.3717658,19.1925569 70.7498924,19.1925569 C71.0668105,19.1925569 71.3604594,19.2930442 71.3604594,20.0211358 L71.3604594,25.7939886 L73.9845822,25.7939886 L73.9845822,19.2796962 C73.9845822,17.7396476 73.2265585,16.9256759 71.79423,16.9256759 L71.794483,16.927187 Z M62.3023668,19.0041749 C62.7207088,19.0041749 63.281955,19.1688832 63.4076599,20.5510234 L61.139659,20.5510234 C61.2686521,19.538092 61.6682775,19.0041749 62.3023668,19.0041749 Z M64.1697305,22.9204064 C63.8593885,23.4125168 63.2513507,23.9383748 62.4763809,23.9383748 C61.6609426,23.9383748 61.2152844,23.3596288 61.1171485,22.1711596 L65.8375344,22.1711596 L65.8375344,21.5971987 C65.8375344,18.6291736 64.5491217,16.9269351 62.3023668,16.9269351 C60.5548906,16.9269351 58.5142716,18.112634 58.5142716,21.4551566 C58.5142716,24.2808877 59.9539349,25.9680153 62.3655986,25.9680153 C63.8290372,25.9680153 64.9457121,25.379951 65.779614,24.1703265 L65.8580216,24.0569951 L64.258761,22.7793717 L64.1697305,22.9204064 Z M30.871825,22.5287833 C30.6110567,23.7920513 30.090026,23.9383748 29.720246,23.9383748 C29.2272903,23.9383748 28.5719552,23.6809865 28.5719552,21.4554084 C28.5719552,19.0359077 29.448096,19.0359077 29.7361805,19.0359077 C30.1975202,19.0359077 30.5323962,19.2562744 30.7772301,20.3533229 L30.8101106,20.5001501 L33.1759945,19.9425594 L33.1405846,19.7974951 C32.8375775,18.5654562 32.1579613,16.927187 29.7677964,16.927187 C27.9135849,16.927187 25.9321509,18.1166636 25.9321509,21.4554084 C25.9321509,24.7825683 27.8726106,25.9682672 29.6886301,25.9682672 C31.4887151,25.9682672 32.6934088,24.9704466 33.1716947,23.0833519 L33.2086221,22.9382876 L30.902935,22.3779265 L30.871825,22.5287833 Z M37.4229002,19.0041749 C37.8412423,19.0041749 38.4022354,19.1688832 38.5279404,20.5510234 L36.2599395,20.5510234 C36.3889325,19.538092 36.7890638,19.0041749 37.4229002,19.0041749 Z M39.2902639,22.9204064 C38.9796689,23.4125168 38.3721371,23.9383748 37.5969143,23.9383748 C36.781476,23.9383748 36.3358178,23.3596288 36.237429,22.1711596 L40.9580678,22.1711596 L40.9580678,21.5971987 C40.9580678,18.6291736 39.6696552,16.9269351 37.4229002,16.9269351 C35.6751711,16.9269351 33.634552,18.112634 33.634552,21.4551566 C33.634552,24.2808877 35.0742154,25.9680153 37.4858791,25.9680153 C38.9493176,25.9680153 40.0662455,25.379951 40.8998945,24.1703265 L40.978302,24.0569951 L39.3792944,22.7793717 L39.2902639,22.9204064 Z M46.9357564,16.9443126 C46.9357564,16.9443126 46.8085339,16.927187 46.7723652,16.927187 C45.6721306,16.927187 44.9755683,17.5097107 44.5481208,18.1229598 L44.5481208,17.1004582 L41.9080635,17.1004582 L41.9080635,25.7947441 L44.5481208,25.7947441 L44.5481208,20.1835776 C44.7858727,19.895212 45.3875872,19.3189845 46.3924681,19.3189845 C46.4822574,19.3189845 46.7986697,19.3502136 46.8472318,19.3617986 L47.0293396,19.4066275 L47.0637377,17.0931546 L47.0667729,16.9616901 L46.9357564,16.9440608 L46.9357564,16.9443126 Z M22.823166,16.927187 C21.8066504,16.927187 20.9798304,17.4341564 20.4565234,17.9967841 L20.4565234,17.1004582 L17.816719,17.1004582 L17.816719,25.7947441 L20.4565234,25.7947441 L20.4565234,19.8662495 C20.9563081,19.418968 21.4012076,19.1925569 21.7788284,19.1925569 C22.0959994,19.1925569 22.3893953,19.2930442 22.3893953,20.0211358 L22.3893953,25.7939886 L25.0135182,25.7939886 L25.0135182,19.2796962 C25.0135182,17.7396476 24.2560003,16.9256759 22.823166,16.9256759 L22.823166,16.927187 Z M6.41044752,21.3367882 C6.1178104,23.0838556 5.64331841,23.7336226 4.65867165,23.7336226 C3.37177652,23.7336226 2.71871771,22.4109186 2.71871771,19.8015246 C2.71871771,17.2548408 3.36115356,15.9636177 4.62705571,15.9636177 C5.55884062,15.9636177 6.00803987,16.5705706 6.28373084,18.2030474 L6.30902359,18.3503783 L8.86156794,17.9061189 L8.84133374,17.763825 C8.4437317,14.9746118 7.09107543,13.618412 4.70596909,13.618412 C1.71535431,13.618412 0,15.8719451 0,19.8012728 C0,23.7985993 1.64883438,26 4.64273721,26 C7.03189039,26 8.44626098,24.6098007 8.96678578,21.7498184 L8.99384902,21.6009764 L6.43472856,21.1909684 L6.41044752,21.3367882 Z M13.9704505,23.2344605 C13.5490733,23.6180245 13.0993682,23.812451 12.6317053,23.812451 C12.2176629,23.812451 11.9895223,23.5684106 11.9895223,23.1256623 C11.9895223,22.6395963 12.2196864,22.0351618 13.9701976,21.6251538 L13.9701976,23.2344605 L13.9704505,23.2344605 Z M16.5308356,23.5983804 L16.5308356,19.8642347 C16.5308356,17.8605345 15.6337018,16.927187 13.7076589,16.927187 C12.1880704,16.927187 10.8301027,17.408216 9.78070647,18.3186454 L9.67523571,18.4100662 L10.9090161,20.0228988 L11.0271332,19.936515 C11.4773442,19.6060908 12.3671431,19.0517741 13.2647828,19.0517741 C13.7787315,19.0517741 13.9704505,19.271889 13.9704505,19.8642347 L13.9704505,20.0876236 C10.9145805,20.6630956 9.42888432,21.796662 9.42888432,23.5510331 C9.42888432,25.0369344 10.2329408,25.8894389 11.634918,25.8894389 C12.5785905,25.8894389 13.3510311,25.5637998 13.9846145,24.8964034 C14.0047767,25.1653336 14.0550847,25.4311744 14.1346005,25.6889681 L14.1664693,25.7947441 L16.801721,25.7947441 L16.7271074,25.5947771 C16.5859738,25.2149907 16.5308356,24.6553852 16.5308356,23.5983804 Z" id="Shape"></path>
            </g>
        </g>
    </g>
</svg>